<?xml version="1.0" encoding="UTF-8" standalone="no"?>
<!DOCTYPE svg PUBLIC "-//W3C//DTD SVG 1.1//EN" "http://www.w3.org/Graphics/SVG/1.1/DTD/svg11.dtd">
<svg width="100%" height="100%" viewBox="0 0 4386 1084" version="1.1" xmlns="http://www.w3.org/2000/svg" xmlns:xlink="http://www.w3.org/1999/xlink" xml:space="preserve" xmlns:serif="http://www.serif.com/" style="fill-rule:evenodd;clip-rule:evenodd;stroke-linejoin:round;stroke-miterlimit:2;">
    <g transform="matrix(1.915574,0,0,1.915574,138.169344,46.564989)">
        <path d="M2130.728,264.167C2126.595,264.167 2123.795,261.234 2123.795,257.1C2123.795,252.967 2126.595,250.034 2130.728,250.034C2134.595,250.034 2137.928,252.967 2137.928,257.1C2137.928,261.234 2134.595,264.167 2130.728,264.167ZM2132.862,277.1L2130.195,280.7L2114.462,269.367C2111.129,290.167 2099.929,308.433 2086.196,322.833L2080.596,322.833C2095.262,304.3 2101.529,287.367 2102.329,262.567L2083.396,257.767L2083.396,256.434L2102.329,251.634C2101.529,227.368 2095.396,209.901 2080.863,191.368L2086.596,191.368C2100.329,205.901 2111.129,224.168 2114.462,244.834L2130.195,233.501L2132.862,237.101L2114.062,257.1L2132.862,277.1ZM2012.913,290.797L2012.875,290.833C2012.582,290.833 2012.294,290.829 2012.009,290.824C2011.697,290.83 2011.39,290.833 2011.089,290.833L2011.089,290.794C1998.441,290.234 1993.774,283.396 1993.009,263.634L1991.009,208.435L2000.076,191.368L2003.142,191.368L2003.142,263.634C2003.142,271.353 2006.124,273.858 2015.078,274.024C2023.62,273.862 2037.94,271.539 2046.556,268.967C2046.289,262.167 2045.222,256.167 2043.356,250.967L2039.356,262.567C2035.489,264.3 2031.622,264.967 2027.223,264.967C2016.156,264.967 2009.889,258.167 2009.889,247.367C2009.889,233.367 2019.756,218.834 2030.289,218.834C2042.422,218.834 2050.955,233.767 2050.955,255.367C2050.955,265.5 2049.622,275.9 2046.556,283.5C2039.137,287.021 2023.303,290.421 2012.913,290.797ZM2026.023,234.701C2022.956,234.701 2020.156,235.634 2017.889,237.501C2015.489,239.501 2014.289,241.634 2014.289,244.034C2014.289,248.301 2019.623,249.901 2028.556,249.901C2034.289,249.901 2038.822,249.234 2042.156,247.901C2038.422,239.501 2032.556,234.701 2026.023,234.701ZM2028.956,210.301L2019.623,200.835L2028.956,191.501L2038.422,200.835L2028.956,210.301ZM2017.756,179.5L2041.355,167.367L2041.355,174.034L2017.756,186.167L2017.756,179.5ZM1944.128,280.833L1943.462,282.567C1940.795,288.967 1938.528,292.167 1932.262,292.167C1929.195,292.167 1925.329,291.1 1920.662,288.967C1915.995,286.833 1911.729,283.9 1907.596,280.3C1902.365,287.571 1897.134,290.569 1889.801,290.815L1889.782,290.833C1889.578,290.833 1889.376,290.832 1889.176,290.829C1889.049,290.83 1888.924,290.833 1888.796,290.833L1888.796,290.821C1875.557,290.512 1870.957,283.806 1869.915,263.634L1867.915,224.168L1876.982,207.101L1880.049,207.101L1880.049,263.634C1880.049,271.466 1883.12,273.929 1892.381,274.029C1897.598,273.979 1901.694,273.187 1904.662,271.767C1907.729,270.3 1910.529,267.767 1913.062,264.167L1916.795,258.7L1919.329,260.434L1915.595,266.834C1922.929,272.167 1929.862,275.367 1936.795,275.367C1942.662,275.367 1945.862,272.434 1947.595,264.3L1949.062,256.3L1952.128,256.3L1952.128,267.1C1958.661,271.767 1967.061,274.834 1972.928,275.234C1970.928,271.1 1967.061,265.767 1962.395,260.034L1968.795,246.434L1971.995,246.434C1975.595,253.901 1977.595,261.5 1977.595,266.967C1977.595,274.567 1974.395,284.033 1968.661,290.833C1960.661,290.433 1951.195,287.1 1944.128,280.833ZM1946.929,243.233C1940.395,243.233 1935.996,238.434 1935.996,231.9C1935.996,224.434 1940.929,218.567 1946.929,218.567C1952.929,218.567 1957.995,224.434 1957.995,231.9C1957.995,238.434 1953.729,243.233 1946.929,243.233ZM1953.729,231.9C1953.729,228.567 1950.662,226.034 1946.929,226.034C1943.329,226.034 1940.262,228.567 1940.262,231.9C1940.262,234.567 1943.062,235.9 1946.929,235.9C1950.795,235.9 1953.729,234.567 1953.729,231.9ZM1862.155,167.367L1885.755,155.234L1885.755,161.9L1862.155,174.033L1862.155,167.367ZM1848.582,263.9C1848.582,271.5 1847.115,279.9 1844.449,286.167C1839.015,288.95 1832.264,290.809 1824.85,290.831L1824.848,290.833L1820.182,290.833C1816.715,302.033 1809.648,312.433 1798.982,321.899L1774.716,309.766L1774.716,306.7C1798.049,302.966 1810.315,298.3 1815.515,290.833L1802.582,290.833C1789.782,290.833 1783.382,283.767 1783.382,272.434C1783.382,257.234 1793.249,241.634 1803.782,241.634C1814.048,241.634 1822.715,255.367 1822.715,273.767L1822.715,274.034L1827.782,274.034C1831.382,274.034 1835.249,273.5 1839.115,272.434L1836.982,213.901C1832.316,204.835 1835.249,196.835 1845.515,191.368L1848.582,191.368L1848.582,202.035L1857.382,213.901L1848.582,220.301L1848.582,263.9ZM1810.315,262.567C1806.982,259.5 1803.515,257.9 1799.648,257.9C1796.449,257.9 1793.649,258.967 1791.382,261.1C1789.115,263.234 1787.915,265.634 1787.915,268.167C1787.915,272.434 1793.115,274.034 1802.048,274.034L1817.115,274.034C1815.782,269.634 1813.515,265.767 1810.315,262.567ZM1852.715,181.234L1847.248,178.834L1846.982,178.967L1829.515,188.433L1829.515,181.767L1841.248,176.034C1838.715,174.3 1837.382,171.9 1837.382,169.1C1837.382,163.767 1840.982,159.367 1845.648,159.367C1850.315,159.367 1853.648,163.234 1853.648,168.034C1853.648,170.3 1852.982,172.434 1851.782,174.434L1855.515,176.034L1852.715,181.234ZM1844.715,165.634C1842.448,165.634 1840.982,166.7 1840.982,168.167C1840.982,169.767 1843.115,170.834 1847.382,172.567C1848.448,171.634 1848.982,170.7 1848.982,169.634C1848.982,167.1 1846.982,165.634 1844.715,165.634ZM1763.115,290.833L1760.582,208.435L1769.649,191.368L1772.715,191.368L1772.715,268.167L1766.182,290.833L1763.115,290.833ZM1701.489,167.367L1725.088,155.234L1725.088,161.9L1701.489,174.033L1701.489,167.367ZM1680.355,290.833C1669.155,290.833 1659.688,288.833 1652.355,285.233C1644.958,288.8 1635.99,290.793 1626.489,290.83L1626.486,290.833C1626.44,290.833 1626.396,290.832 1626.351,290.832C1626.308,290.832 1626.265,290.833 1626.222,290.833L1626.222,290.83C1619.566,290.761 1614.988,288.097 1612.619,282.833C1612.219,288.167 1611.153,294.167 1609.019,301.633C1593.953,309.5 1567.82,314.566 1543.287,314.566C1513.288,314.566 1485.555,309.233 1462.755,298.966L1439.689,273.234L1441.155,271.1C1469.422,288.433 1506.754,297.767 1543.287,297.767C1569.82,297.767 1594.886,292.967 1607.553,286.567L1604.486,208.435L1613.553,191.368L1616.619,191.368L1616.619,263.634C1616.619,271.595 1619.791,274.01 1629.416,274.032C1632.97,274.029 1636.393,273.899 1639.555,273.767C1637.555,270.3 1636.622,266.567 1636.622,262.434C1636.622,258.034 1637.822,253.767 1640.355,249.501C1642.755,245.234 1645.689,241.901 1649.022,239.634L1649.022,228.301L1666.222,237.367C1686.355,248.167 1693.954,253.767 1693.954,269.9C1693.954,275.9 1692.488,282.833 1689.688,290.833L1680.355,290.833ZM1652.355,250.034C1646.089,250.034 1641.155,253.234 1641.155,257.5C1641.155,263.367 1648.222,268.434 1659.022,271.234C1665.822,269.5 1669.155,266.834 1669.155,263.5C1669.155,256.567 1660.888,250.034 1652.355,250.034ZM1673.555,258.034C1673.288,263.367 1671.421,268.434 1667.822,273.1C1672.221,273.767 1676.888,274.034 1681.688,274.034L1690.621,274.034C1689.421,268.567 1684.355,263.9 1673.555,258.034ZM1663.822,220.167C1657.288,220.167 1652.888,215.367 1652.888,208.834C1652.888,201.367 1657.822,195.501 1663.822,195.501C1669.822,195.501 1674.888,201.367 1674.888,208.834C1674.888,215.367 1670.621,220.167 1663.822,220.167ZM1670.621,208.834C1670.621,205.5 1667.555,202.967 1663.822,202.967C1660.222,202.967 1657.155,205.5 1657.155,208.834C1657.155,211.5 1659.955,212.834 1663.822,212.834C1667.688,212.834 1670.621,211.5 1670.621,208.834ZM1532.888,260.434L1556.488,248.3L1556.488,254.967L1532.888,267.1L1532.888,260.434ZM1401.688,290.833L1399.155,208.435L1408.222,191.368L1411.288,191.368L1411.288,268.167L1404.755,290.833L1401.688,290.833ZM1380.115,263.9C1380.115,271.5 1378.648,279.9 1375.982,286.167C1370.728,288.858 1364.24,290.682 1357.114,290.82L1357.101,290.833C1356.961,290.833 1356.823,290.829 1356.684,290.827C1356.539,290.828 1356.395,290.833 1356.249,290.833L1356.249,290.817C1352.473,290.679 1349.173,289.619 1346.568,287.633C1343.635,285.633 1340.568,281.633 1337.501,275.634L1337.235,275.634L1334.835,286.967C1329.635,290.833 1321.235,292.967 1313.368,292.967C1299.902,292.967 1294.169,287.233 1294.169,277.5C1294.169,273.9 1294.969,269.634 1296.169,264.967L1299.369,264.967C1299.369,274.034 1302.169,276.167 1315.902,276.167C1323.901,276.167 1330.568,274.7 1335.901,272.567C1334.701,269.9 1333.235,266.834 1331.635,263.234L1322.168,241.101L1328.968,225.901L1332.035,225.901L1340.968,254.434C1345.937,269.996 1349.497,273.885 1359.57,274.029C1363.098,274.004 1366.872,273.475 1370.649,272.434L1368.515,213.901C1363.849,204.835 1366.782,196.835 1377.048,191.368L1380.115,191.368L1380.115,202.035L1388.915,213.901L1380.115,220.301L1380.115,263.9ZM1328.968,216.034L1319.635,206.568L1328.968,197.235L1338.435,206.568L1328.968,216.034ZM1316.702,185.234L1340.302,173.1L1340.302,179.767L1316.702,191.9L1316.702,185.234ZM1329.102,165.234C1327.902,170.034 1324.702,172.7 1321.102,172.7C1316.702,172.7 1314.169,169.367 1314.169,165.501C1314.169,162.434 1315.235,159.367 1316.969,156.301L1319.235,157.101C1318.568,158.834 1318.302,160.567 1318.302,161.501C1318.302,164.301 1319.502,165.767 1322.035,165.767C1325.102,165.767 1326.168,163.234 1326.835,160.167L1328.302,154.834L1330.835,154.834L1330.835,158.834C1333.635,160.834 1336.702,162.301 1339.235,162.434C1338.702,160.834 1337.368,158.034 1334.702,154.834L1337.901,148.834L1339.235,148.834C1340.835,151.634 1342.035,155.101 1342.035,157.767C1342.035,161.501 1341.101,164.967 1338.035,168.567C1334.968,168.434 1332.035,167.367 1329.102,165.234ZM1187.155,290.833L1160.355,290.833L1160.355,290.831C1156.147,290.809 1152.589,289.746 1149.555,287.767C1147.422,298.433 1142.888,309.766 1135.822,321.899L1110.622,309.766L1110.622,306.7C1131.422,302.033 1144.088,293.767 1146.355,285.1C1142.488,281.233 1138.622,275.234 1133.288,266.567L1140.222,251.367L1143.288,251.367L1149.021,263.234C1153.555,272.034 1156.355,274.034 1163.688,274.034L1189.022,274.034C1209.288,274.034 1227.421,273.367 1243.287,272.167C1259.154,270.967 1271.82,269.1 1281.287,266.834C1279.287,259.767 1271.954,256.3 1259.021,256.3C1251.554,256.3 1248.087,256.7 1235.288,257.767L1220.755,258.834C1207.955,259.634 1202.755,259.767 1192.622,259.767C1180.488,259.767 1167.822,257.9 1162.622,255.234C1162.622,238.834 1167.422,228.968 1178.222,223.768L1221.821,201.368L1223.021,202.968L1216.755,217.634L1168.755,241.901C1171.289,242.567 1174.755,243.234 1179.422,243.767C1184.088,244.434 1188.755,244.701 1193.422,244.701C1205.688,244.701 1210.755,244.301 1221.155,243.767L1235.688,242.567C1252.221,241.234 1255.554,241.234 1259.021,241.234C1276.22,241.234 1285.287,248.301 1285.287,261.5C1285.287,267.1 1283.82,273.9 1280.754,281.767C1263.287,287.633 1229.021,290.833 1187.155,290.833ZM1178.755,210.833C1172.222,210.833 1167.822,206.034 1167.822,199.5C1167.822,192.034 1172.755,186.167 1178.755,186.167C1184.755,186.167 1189.821,192.034 1189.821,199.5C1189.821,206.034 1185.555,210.833 1178.755,210.833ZM1185.555,199.5C1185.555,196.167 1182.488,193.634 1178.755,193.634C1175.155,193.634 1172.088,196.167 1172.088,199.5C1172.088,202.167 1174.888,203.5 1178.755,203.5C1182.622,203.5 1185.555,202.167 1185.555,199.5ZM1066.141,337.9L1089.741,325.767L1089.741,332.434L1066.141,344.567L1066.141,337.9ZM1067.275,328.166L1073.141,320.299C1070.075,317.5 1068.475,314.566 1068.475,311.5C1068.475,305.366 1075.008,298.167 1080.608,298.167C1084.741,298.167 1086.341,301.5 1086.341,303.633C1086.341,306.166 1085.541,307.633 1085.008,308.7L1077.141,305.9C1074.075,306.433 1071.408,308.166 1071.408,309.9C1071.408,313.633 1079.675,314.966 1086.341,312.3L1088.208,311.5L1088.208,318.833L1067.275,329.366L1067.275,328.166ZM1074.475,290.833L1071.942,208.435L1081.008,191.368L1084.075,191.368L1084.075,268.167L1077.542,290.833L1074.475,290.833ZM986.1,314.566C956.234,314.566 928.501,309.233 905.968,298.966L882.902,273.234L884.368,271.1C912.635,288.433 950.101,297.767 986.1,297.767C1016.366,297.767 1041.699,292.433 1054.766,284.167C1053.299,277.233 1049.166,269.5 1040.633,256.834L1047.432,241.634L1050.499,241.634C1056.366,251.634 1059.432,263.767 1059.432,273.767C1059.432,282.433 1058.632,289.9 1056.099,299.366C1042.099,308.566 1014.633,314.566 986.1,314.566ZM996.9,257.767L987.433,267.234L978.1,257.767L987.433,248.434L996.9,257.767ZM987.968,240.167C981.434,240.167 977.034,235.367 977.034,228.834C977.034,221.367 981.968,215.501 987.968,215.501C993.968,215.501 999.034,221.367 999.034,228.834C999.034,235.367 994.767,240.167 987.968,240.167ZM994.767,228.834C994.767,225.5 991.701,222.967 987.968,222.967C984.368,222.967 981.301,225.5 981.301,228.834C981.301,231.5 984.101,232.834 987.968,232.834C991.834,232.834 994.767,231.5 994.767,228.834ZM757.768,290.833L730.968,290.833L730.968,290.827C719.889,290.699 713.755,285.248 712.701,275.367L712.301,275.367L709.768,286.567C706.192,289.156 701.703,290.602 696.514,290.806L696.486,290.833C696.284,290.833 696.085,290.828 695.886,290.823C695.669,290.827 695.454,290.833 695.235,290.833L695.235,290.793C687.887,290.343 682.469,285.804 675.02,274.567L669.553,266.3C665.42,260.034 661.953,257.5 654.087,257.5C646.487,257.5 638.087,261.5 638.087,266.3C638.087,268.034 639.42,269.5 642.22,270.967C645.02,272.434 650.087,274.3 657.553,276.3L668.887,279.5L664.087,295.633L656.087,293.367C648.754,291.367 644.487,290.167 637.687,290.167C633.421,290.167 629.821,290.967 626.621,291.9L633.421,317.366L627.687,337.899L624.621,337.899C621.021,305.1 620.087,297.1 620.087,294.567C620.087,284.033 625.154,276.967 636.487,275.234C634.621,272.567 633.687,269.9 633.687,267.1C633.687,255.234 647.554,241.101 660.354,241.101C664.22,241.101 667.687,242.167 670.487,244.434C673.287,246.701 676.487,250.834 680.22,256.567L685.686,264.967C689.943,271.287 693.326,273.863 698.973,274.025C704.659,273.938 709.242,272.743 712.834,270.434L716.434,251.367L719.501,251.367L719.501,262.034C719.501,266.967 720.568,270.167 722.701,271.634C724.834,273.234 728.701,274.034 734.301,274.034L759.634,274.034C779.901,274.034 798.034,273.367 813.9,272.167C829.767,270.967 842.433,269.1 851.9,266.834C849.9,259.767 842.566,256.3 829.633,256.3C822.167,256.3 818.7,256.7 805.9,257.767L791.367,258.834C778.567,259.634 773.368,259.767 763.234,259.767C751.101,259.767 738.435,257.9 733.235,255.234C733.235,238.834 738.035,228.968 748.835,223.768L792.434,201.368L793.634,202.968L787.367,217.634L739.368,241.901C741.901,242.567 745.368,243.234 750.035,243.767C754.701,244.434 759.368,244.701 764.034,244.701C776.301,244.701 781.367,244.301 791.767,243.767L806.3,242.567C822.833,241.234 826.167,241.234 829.633,241.234C846.833,241.234 855.9,248.301 855.9,261.5C855.9,267.1 854.433,273.9 851.366,281.767C833.9,287.633 799.634,290.833 757.768,290.833ZM759.768,206.567L754.301,204.167L754.034,204.3L736.568,213.767L736.568,207.1L748.301,201.367C745.768,199.634 744.434,197.234 744.434,194.434C744.434,189.1 748.034,184.701 752.701,184.701C757.368,184.701 760.701,188.567 760.701,193.367C760.701,195.634 760.034,197.767 758.834,199.767L762.568,201.367L759.768,206.567ZM751.768,190.967C749.501,190.967 748.034,192.034 748.034,193.5C748.034,195.1 750.168,196.167 754.434,197.9C755.501,196.967 756.034,196.034 756.034,194.967C756.034,192.434 754.034,190.967 751.768,190.967ZM727.234,232.034L717.768,241.501L708.435,232.034L717.768,222.701L727.234,232.034ZM718.434,214.567C711.901,214.567 707.501,209.767 707.501,203.234C707.501,195.767 712.434,189.901 718.434,189.901C724.434,189.901 729.501,195.767 729.501,203.234C729.501,209.767 725.234,214.567 718.434,214.567ZM725.234,203.234C725.234,199.9 722.167,197.367 718.434,197.367C714.834,197.367 711.768,199.9 711.768,203.234C711.768,205.9 714.568,207.234 718.434,207.234C722.301,207.234 725.234,205.9 725.234,203.234ZM658.62,225.368L650.754,233.234L641.554,223.901L650.754,214.834L658.62,222.568L666.487,214.834L675.82,223.901L666.487,233.234L658.62,225.368ZM669.06,201.767L663.594,199.367L663.327,199.5L645.861,208.967L645.861,202.3L657.594,196.567C655.061,194.834 653.727,192.434 653.727,189.634C653.727,184.3 657.327,179.901 661.994,179.901C666.66,179.901 669.994,183.767 669.994,188.567C669.994,190.834 669.327,192.967 668.127,194.967L671.86,196.567L669.06,201.767ZM661.061,186.167C658.794,186.167 657.327,187.234 657.327,188.7C657.327,190.3 659.46,191.367 663.727,193.1C664.794,192.167 665.327,191.234 665.327,190.167C665.327,187.634 663.327,186.167 661.061,186.167ZM618.527,249.5C611.994,249.5 607.594,244.7 607.594,238.167C607.594,230.7 612.527,224.834 618.527,224.834C624.527,224.834 629.594,230.7 629.594,238.167C629.594,244.7 625.327,249.5 618.527,249.5ZM625.327,238.167C625.327,234.834 622.26,232.3 618.527,232.3C614.927,232.3 611.86,234.834 611.86,238.167C611.86,240.834 614.66,242.167 618.527,242.167C622.394,242.167 625.327,240.834 625.327,238.167ZM580.74,226.301C580.74,235.367 579.14,242.034 574.34,248.834C579.94,254.701 582.74,261.1 582.74,267.9C582.74,273.9 581.54,281.5 579.54,287.233C573.007,289.367 562.34,290.833 552.74,290.833L534.207,290.833L534.207,275.1L543.407,269.1C551.274,263.9 556.874,259.634 561.007,255.5C559.807,254.567 558.34,253.634 556.874,252.567L538.341,239.101L525.941,239.101L525.941,215.234L528.074,213.101L557.407,234.834C561.807,238.034 565.673,240.834 568.873,243.501C570.073,239.367 570.607,234.701 570.207,229.234L569.273,214.168C564.473,205.101 567.14,196.835 577.673,191.368L580.74,191.368L580.74,202.168L589.406,213.901L580.74,220.301L580.74,226.301ZM565.14,258.567C560.34,262.834 553.94,267.367 545.807,272.7L543.807,274.034L554.474,274.034C563.673,274.034 573.007,273.367 578.74,271.9C577.273,268.567 573.54,264.567 565.14,258.567ZM561.047,178.7L584.647,166.567L584.647,173.234L561.047,185.367L561.047,178.7ZM484.247,224.834L476.38,232.701L467.181,223.368L476.38,214.301L484.247,222.034L492.114,214.301L501.447,223.368L492.114,232.701L484.247,224.834ZM472.913,201.9L496.513,189.767L496.513,196.434L472.913,208.567L472.913,201.9ZM469.547,274.033C476.844,274.023 483.873,272.958 489.58,270.967C486.78,266.7 482.247,261.234 476.78,256.034L483.58,240.701L486.78,240.701C491.98,248.567 494.247,255.634 494.247,264.3C494.247,271.634 492.913,278.833 490.114,285.9C483.775,289.201 475.995,290.8 466.649,290.83L466.646,290.833C466.596,290.833 466.547,290.832 466.496,290.832C466.457,290.832 466.42,290.833 466.38,290.833L466.38,290.831C456.894,290.785 448.717,288.253 441.98,283.233C432.845,287.999 421.212,290.792 408.648,290.831L408.646,290.833C397.58,290.967 392.247,286.967 389.98,275.367L389.58,275.367L387.047,286.567C383.241,289.322 378.401,290.783 372.783,290.829L372.779,290.833C372.723,290.833 372.669,290.832 372.614,290.832C372.58,290.832 372.547,290.833 372.514,290.833L372.514,290.831C365.741,290.776 361.658,288.622 357.446,282.7L353.313,296.433C340.646,293.9 328.513,290.433 321.047,286.3C317.217,289.337 312.865,290.802 308.249,290.831L308.246,290.833L303.579,290.833C300.113,302.033 293.046,312.433 282.38,321.899L258.113,309.766L258.113,306.7C281.446,302.966 293.713,298.3 298.913,290.833L285.979,290.833C273.18,290.833 266.78,283.767 266.78,272.434C266.78,257.234 276.646,241.634 287.18,241.634C297.446,241.634 306.113,255.367 306.113,273.767L306.113,274.034L311.18,274.034C315.313,274.034 319.58,273.1 322.646,271.634C326.113,257.634 334.513,246.301 343.979,246.301C349.713,246.301 353.579,249.367 359.313,259.9L362.113,265.367C365.686,271.852 368.736,274.001 375.693,274.032C380.066,274.016 385.082,273.081 389.18,270.834C388.913,268.7 388.78,266.3 388.647,263.634L386.647,208.435L395.713,191.368L398.913,191.368L398.913,263.634C398.913,271.6 401.956,274.012 411.592,274.033C418.999,274.027 425.619,273.629 431.58,272.967L426.114,266.7C421.313,261.5 419.314,259.9 415.447,258.967L422.914,239.234C429.98,236.967 436.513,235.767 442.38,235.767C456.38,235.767 463.446,242.034 463.446,253.101C463.446,260.7 460.38,267.634 455.18,273.367C458.746,273.763 463.495,274.028 469.547,274.033ZM293.713,262.567C290.38,259.5 286.913,257.9 283.046,257.9C279.846,257.9 277.046,258.967 274.78,261.1C272.513,263.234 271.313,265.634 271.313,268.167C271.313,272.434 276.513,274.034 285.446,274.034L300.513,274.034C299.179,269.634 296.913,265.767 293.713,262.567ZM353.846,276.833L351.046,271.634C347.846,265.634 344.38,263.1 339.713,263.1C334.38,263.1 329.58,266.434 326.78,271.1C334.38,274.7 345.313,277.9 355.446,279.633C354.913,278.833 354.379,277.9 353.846,276.833ZM458.113,258.967C458.113,254.301 452.913,252.034 442.38,252.034C437.98,252.034 433.18,252.701 428.513,254.167L428.513,254.701C430.513,255.367 432.913,257.234 435.98,260.567L443.047,268.3C443.713,268.967 444.38,269.634 445.18,270.167C453.846,267.634 458.113,263.9 458.113,258.967ZM442.913,222.833C436.38,222.833 431.98,218.034 431.98,211.5C431.98,204.034 436.913,198.167 442.913,198.167C448.913,198.167 453.98,204.034 453.98,211.5C453.98,218.034 449.713,222.833 442.913,222.833ZM449.713,211.5C449.713,208.167 446.646,205.634 442.913,205.634C439.313,205.634 436.247,208.167 436.247,211.5C436.247,214.167 439.047,215.5 442.913,215.5C446.78,215.5 449.713,214.167 449.713,211.5ZM381.713,181.767L405.313,169.634L405.313,176.3L381.713,188.433L381.713,181.767ZM354.513,229.1L349.046,226.7L348.779,226.834L331.313,236.3L331.313,229.634L343.046,223.9C340.513,222.167 339.18,219.767 339.18,216.967C339.18,211.634 342.78,207.234 347.446,207.234C352.113,207.234 355.446,211.1 355.446,215.9C355.446,218.167 354.779,220.3 353.579,222.3L357.313,223.9L354.513,229.1ZM346.513,213.5C344.246,213.5 342.78,214.567 342.78,216.034C342.78,217.634 344.913,218.7 349.179,220.434C350.246,219.5 350.779,218.567 350.779,217.5C350.779,214.967 348.779,213.5 346.513,213.5ZM183.938,314.566C154.072,314.566 126.339,309.233 103.806,298.966L80.74,273.234L82.207,271.1C110.473,288.433 147.939,297.767 183.938,297.767C214.204,297.767 239.537,292.433 252.604,284.167C251.137,277.233 247.004,269.5 238.471,256.834L245.271,241.634L248.337,241.634C254.204,251.634 257.271,263.767 257.271,273.767C257.271,282.433 256.47,289.9 253.937,299.366C239.937,308.566 212.471,314.566 183.938,314.566ZM185.272,267.234L175.938,257.767L185.272,248.434L194.738,257.767L185.272,267.234ZM173.94,236.434L197.539,224.3L197.539,230.967L173.94,243.1L173.94,236.434ZM7.686,250.034C11.819,250.034 14.619,252.967 14.619,257.1C14.619,261.234 11.819,264.167 7.686,264.167C3.819,264.167 0.486,261.234 0.486,257.1C0.486,252.967 3.819,250.034 7.686,250.034ZM55.019,256.434L55.019,257.767L36.085,262.567C36.885,286.833 43.019,304.3 57.552,322.833L51.819,322.833C38.085,308.3 27.286,290.033 23.952,269.367L8.219,280.7L5.553,277.1L24.353,257.1L5.553,237.101L8.219,233.501L23.952,244.834C27.286,224.034 38.486,205.768 52.219,191.368L57.819,191.368C43.152,209.901 36.885,226.834 36.085,251.634L55.019,256.434ZM1143.421,337.634L1119.822,349.767L1119.822,343.1L1143.421,330.967L1143.421,337.634ZM1703.782,188.702C1703.782,182.568 1710.315,175.368 1715.915,175.368C1720.049,175.368 1721.648,178.702 1721.648,180.835C1721.648,183.368 1720.849,184.835 1720.315,185.902L1712.449,183.102C1709.382,183.635 1706.715,185.368 1706.715,187.102C1706.715,190.835 1714.982,192.168 1721.648,189.501L1723.515,188.702L1723.515,196.035L1702.582,206.568L1702.582,205.368L1708.449,197.501C1705.382,194.701 1703.782,191.768 1703.782,188.702ZM1719.382,207.101L1719.382,268.167L1712.849,290.833L1709.782,290.833L1707.249,224.168L1716.315,207.101L1719.382,207.101ZM1864.449,188.702C1864.449,182.568 1870.982,175.368 1876.582,175.368C1880.715,175.368 1882.315,178.702 1882.315,180.835C1882.315,183.368 1881.515,184.835 1880.982,185.902L1873.115,183.102C1870.049,183.635 1867.382,185.368 1867.382,187.102C1867.382,190.835 1875.649,192.168 1882.315,189.501L1884.182,188.702L1884.182,196.035L1863.249,206.568L1863.249,205.368L1869.115,197.501C1866.049,194.701 1864.449,191.768 1864.449,188.702Z" style="fill:rgb(216,221,227);"/>
    </g>
    <g transform="matrix(1.915574,0,0,1.915574,138.169344,46.564989)">
        <path d="M2125.788,26.734L2121.855,30.667L2117.255,26.001L2121.855,21.467L2125.788,25.334L2129.721,21.467L2134.388,26.001L2129.721,30.667L2125.788,26.734ZM2130.988,55.867C2129.055,56.734 2127.122,57.067 2124.922,57.067C2119.388,57.067 2116.255,53.667 2116.255,48.267C2116.255,41.267 2121.188,34.001 2126.455,34.001C2132.521,34.001 2136.788,41.467 2136.788,52.267C2136.788,57.334 2136.121,62.533 2134.588,66.333C2130.655,68.2 2121.988,70 2116.855,70L2116.855,69.936L2116.788,70L2112.388,70L2112.388,69.936L2112.322,70L2107.922,70L2107.922,69.985C2101.498,69.746 2099.133,66.35 2098.748,56.4L2097.748,28.801L2102.281,20.267L2103.815,20.267L2103.815,56.4C2103.815,60.4 2105.415,61.6 2110.281,61.6L2118.388,61.6C2122.588,61.6 2130.121,60.4 2134.588,59.067C2134.455,55.667 2133.921,52.667 2132.988,50.067L2130.988,55.867ZM2124.322,41.934C2122.788,41.934 2121.388,42.4 2120.255,43.334C2119.055,44.334 2118.455,45.4 2118.455,46.6C2118.455,48.734 2121.122,49.534 2125.588,49.534C2128.455,49.534 2130.721,49.2 2132.388,48.534C2130.521,44.334 2127.588,41.934 2124.322,41.934ZM2088.147,61.467C2088.147,65.8 2087.747,69.533 2086.48,74.267C2079.48,78.867 2065.014,81.866 2051.681,81.866C2036.681,81.866 2022.815,79.2 2011.415,74.067L1999.882,61.2L2000.615,60.133C2014.748,68.8 2033.348,73.467 2051.681,73.467C2064.547,73.467 2076.88,71.267 2083.814,67.733L2082.414,31.534C2080.014,27.067 2081.347,23.001 2086.614,20.267L2088.147,20.267L2088.147,25.667L2092.48,31.534L2088.147,34.734L2088.147,61.467ZM1979.967,70L1978.7,28.801L1983.234,20.267L1984.767,20.267L1984.767,58.667L1981.5,70L1979.967,70ZM1968.967,56.534C1968.967,60.333 1968.234,64.533 1966.901,67.667C1964.167,69.067 1960.701,70 1957.034,70C1951.501,70.067 1948.834,68.067 1947.701,62.267L1947.501,62.267L1946.168,67.867C1944.234,69.267 1941.901,70 1939.034,70C1932.301,70 1930.768,66.933 1929.701,57.4L1927.768,63.4C1925.968,64.267 1923.968,64.733 1921.768,64.733C1916.435,64.733 1913.235,62 1913.235,56.934C1913.235,52.467 1915.968,48.4 1922.835,44.467L1929.501,40.534L1932.701,34.401L1934.234,34.401L1934.234,56.4C1934.234,60.4 1935.768,61.533 1940.568,61.6C1943.434,61.6 1945.634,61.067 1947.301,60C1947.234,58.934 1947.101,57.734 1947.034,56.4L1946.034,36.401L1950.568,27.867L1952.101,27.867L1952.101,56.4C1952.101,60.4 1953.701,61.6 1958.567,61.6C1960.501,61.6 1962.501,61.267 1964.167,60.8L1963.167,33.267C1960.834,28.801 1962.301,24.801 1967.434,22.067L1968.967,22.067L1968.967,27.401L1973.301,33.267L1968.967,36.534L1968.967,56.534ZM1928.568,47.067L1920.835,49.667C1917.568,50.8 1916.168,52.067 1916.168,53.4C1916.168,55.2 1918.435,56.334 1922.368,56.334C1925.235,56.334 1927.635,55.934 1929.435,55.2L1928.568,47.067ZM1949.501,22.001C1948.768,24.401 1947.301,25.667 1945.501,25.667C1943.301,25.667 1942.034,24.067 1942.034,22.134C1942.034,20.601 1942.568,19.067 1943.368,17.534L1944.568,17.934C1944.234,18.867 1944.034,19.601 1944.034,20.134C1944.034,21.534 1944.701,22.201 1945.968,22.201C1947.368,22.201 1948.034,21.001 1948.368,19.467L1949.101,16.801L1950.368,16.801L1950.368,18.801C1951.768,19.801 1953.301,20.534 1954.567,20.601C1954.301,19.801 1953.634,18.401 1952.301,16.801L1953.834,13.734L1954.501,13.734C1955.301,15.134 1955.901,16.934 1955.901,18.267C1955.901,20.067 1955.501,21.867 1953.967,23.667C1952.434,23.601 1950.968,23.067 1949.501,22.001ZM1948.301,14.268L1947.834,2.734L1950.034,0.468L1950.701,0.468L1950.701,11.734L1949.034,14.268L1948.301,14.268ZM1891.081,37.001L1887.148,40.934L1882.548,36.267L1887.148,31.734L1891.081,35.601L1895.015,31.734L1899.681,36.267L1895.015,40.934L1891.081,37.001ZM1883.681,61.6L1883.681,61.601L1883.682,61.6C1887.348,61.6 1890.881,61.067 1893.748,60.067C1892.348,57.934 1890.081,55.2 1887.348,52.6L1890.748,44.934L1892.348,44.934C1894.948,48.867 1896.081,52.4 1896.081,56.734C1896.081,60.4 1895.415,64 1894.015,67.533C1890.815,69.2 1886.882,70 1882.148,70L1882.148,69.1L1882.148,70C1877.348,70 1873.215,68.733 1869.815,66.2C1865.402,68.502 1859.823,69.881 1853.786,69.989L1853.775,70C1853.651,70 1853.532,69.997 1853.411,69.995C1853.279,69.996 1853.148,70 1853.015,70L1853.015,69.985C1846.591,69.746 1844.227,66.35 1843.841,56.4L1842.841,28.801L1847.375,20.267L1848.908,20.267L1848.908,56.4C1848.908,60.294 1850.434,61.531 1855.005,61.594C1858.55,61.578 1861.74,61.386 1864.615,61.067L1861.881,57.934C1859.482,55.334 1858.482,54.534 1856.548,54.067L1860.281,44.2C1863.815,43.067 1867.081,42.467 1870.015,42.467C1877.015,42.467 1880.548,45.6 1880.548,51.134C1880.548,54.934 1879.015,58.4 1876.415,61.267C1878.215,61.467 1880.615,61.6 1883.681,61.6ZM1877.881,54.067C1877.881,51.734 1875.281,50.6 1870.015,50.6C1867.815,50.6 1865.415,50.934 1863.081,51.667L1863.081,51.934C1864.081,52.267 1865.281,53.2 1866.815,54.867L1870.348,58.734C1870.681,59.067 1871.015,59.4 1871.415,59.667C1875.748,58.4 1877.881,56.534 1877.881,54.067ZM1834.693,77.267C1828.56,84.066 1814.494,88.133 1798.361,88.133C1783.894,88.133 1770.561,85.466 1759.628,80.4L1748.028,67.467L1748.761,66.4C1762.428,75.133 1779.894,79.733 1798.361,79.733C1813.494,79.733 1827.36,75.867 1833.693,70.067C1832.627,69.467 1830.493,68.867 1827.294,68.4L1814.894,66.667L1816.494,58.867C1821.094,58.867 1824.494,58.8 1827.094,58.334L1826.16,31.534C1823.76,27.001 1825.094,23.001 1830.36,20.267L1831.893,20.267L1831.893,25.667L1836.227,31.534L1831.893,34.734L1831.893,54.2C1831.893,56.734 1831.427,59.333 1830.493,61.933C1834.827,62.8 1836.36,64.333 1836.36,67C1836.36,69.467 1835.96,73.267 1834.693,77.267ZM1738.268,70.733C1735.668,70.733 1733.468,68.467 1733.468,66C1733.468,63.333 1735.668,61.2 1738.268,61.2C1740.868,61.2 1743.068,63.333 1743.068,66C1743.068,68.467 1740.868,70.733 1738.268,70.733ZM1738.201,48.534C1735.601,48.534 1733.468,46.4 1733.468,43.734C1733.468,41.134 1735.601,39 1738.201,39C1740.801,39 1743.001,41.134 1743.001,43.734C1743.001,46.4 1740.801,48.534 1738.201,48.534Z" style="fill:rgb(216,221,227);"/>
    </g>
    <g transform="matrix(1.915574,0,0,1.915574,138.169344,46.564989)">
        <path d="M421.356,448.1C417.356,448.8 412.623,447.133 409.09,444L408.756,444.867C407.423,448.067 406.29,449.667 403.156,449.667C401.623,449.667 399.69,449.133 397.356,448.067C395.023,447 392.89,445.533 390.823,443.733C388.09,447.533 385.357,448.1 381.423,448.1L381.423,448.936L381.356,448.1L379.023,448.1C377.29,454.6 373.756,459.8 368.423,464.533L356.29,458.467L356.29,456.933C367.957,455.067 374.09,452.733 376.69,448.1L370.223,448.1C363.823,448.1 360.623,445.467 360.623,439.8C360.623,432.2 365.557,424.4 370.823,424.4C375.956,424.4 380.29,431.267 380.29,440.467L380.29,440.6L382.956,440.6L382.956,440.601L382.957,440.6C385.69,440.6 387.823,440.2 389.357,439.467C390.89,438.733 392.29,437.467 393.557,435.667L395.423,432.934L396.69,433.8L394.823,437C398.49,439.667 401.956,441.267 405.423,441.267C408.356,441.267 409.956,439.8 410.823,435.734L411.556,431.734L413.09,431.734L413.09,437.134C416.356,439.467 420.556,441 423.489,441.2C422.489,439.133 420.556,436.467 418.223,433.6L421.423,426.8L423.023,426.8C424.823,430.534 425.823,434.334 425.823,437.067C425.823,440.867 424.223,445.6 421.356,448.1ZM374.09,434.867C372.423,433.334 370.69,432.534 368.757,432.534C367.157,432.534 365.757,433.067 364.623,434.134C363.49,435.2 362.89,436.4 362.89,437.667C362.89,439.8 365.49,440.6 369.957,440.6L377.49,440.6C376.823,438.4 375.69,436.467 374.09,434.867ZM335.723,458.467L335.723,456.933C348.19,453.533 353.79,449.267 353.79,444C353.79,440.6 351.856,437.734 346.123,432L349.59,424.4L351.123,424.4C354.323,429.4 355.99,435.134 355.99,440.2C355.99,447.4 353.39,455.933 348.323,464.533L335.723,458.467ZM330.223,450.133C324.156,450.133 320.29,446.333 320.29,440.4C320.29,436.467 321.89,432.534 325.156,428.534L325.156,420.8C329.356,422.4 332.556,423.934 334.823,425.467C339.29,428.534 340.756,432.134 340.756,437.734C340.756,445.533 337.09,450.133 330.223,450.133ZM338.556,438.133C338.556,436 335.423,433.467 328.156,430.734C324.49,433.467 322.49,436.2 322.49,438.133C322.49,440.333 325.423,441.733 330.556,441.733C335.556,441.733 338.556,440.333 338.556,438.133ZM330.556,414.467L326.623,418.4L322.023,413.734L326.623,409.201L330.556,413.067L334.49,409.201L339.156,413.734L334.49,418.4L330.556,414.467ZM297.723,448.1L296.457,407.801L300.99,399.267L302.523,399.267L302.523,437.667L299.257,448.1L297.723,448.1ZM286.937,435.534C286.937,439.333 286.203,443.533 284.87,446.667C282.153,448.058 278.778,448.988 275.071,448.999L275.07,448.1C275.062,448.1 275.055,448.999 275.048,448.999C275.033,448.999 275.018,448.1 275.003,448.1L275.003,448.998C269.38,448.976 266.268,446.247 265.737,441.267L265.537,441.267L264.27,446.867C262.337,448.267 259.87,448.1 257.003,448.1L257.003,448.999L257.003,448.1C249.87,448.1 246.536,445.8 246.27,436.534C242.47,437.134 238.736,438.733 232.803,442.467C229.003,444.867 225.737,446.533 222.937,447.533C220.07,448.533 217.27,448.1 214.47,448.1L214.47,448.999L214.469,448.1C211.069,448.1 208.735,447.667 207.535,445C207.335,447.667 206.802,450.667 205.735,454.4C198.202,458.333 185.136,460.866 172.869,460.866C157.87,460.866 144.003,458.2 132.603,453.067L121.07,440.2L121.803,439.133C135.937,447.8 154.603,452.467 172.869,452.467C186.136,452.467 198.669,450.067 205.002,446.867L203.469,407.801L208.002,399.267L209.535,399.267L209.535,435.4C209.535,439.4 211.135,440.6 216.002,440.6L216.002,440.602L216.003,440.6C220.737,440.6 225.403,439.667 230.937,437.8C235.736,436.267 239.336,435.334 242.736,434.8L242.736,434.534C239.47,433.934 236.336,433 233.47,432.134C229.537,430.867 226.737,430.134 224.67,430.134C222.003,430.134 220.537,431.534 220.203,434.267L218.67,434.267C218.403,432.934 218.337,431.667 218.337,430.534C218.337,424.734 220.87,421.934 225.203,421.934C227.337,421.934 230.07,422.667 236.136,424.734C243.67,427.267 247.203,428.067 252.536,428.067L255.203,428.067L253.403,436.2L251.336,436.2C250.336,436.2 249.403,436.2 248.603,436.267C249.136,439.533 252.203,440.6 258.536,440.6L258.536,440.601L258.537,440.6C261.537,440.6 263.937,440 265.803,438.8L267.603,429.267L269.137,429.267L269.137,434.6C269.137,437.067 269.67,438.667 270.737,439.4C271.803,440.2 273.736,440.6 276.536,440.6L276.537,440.6C278.337,440.6 280.27,440.333 282.203,439.8L281.137,410.534C278.803,406.001 280.27,402.001 285.403,399.267L286.937,399.267L286.937,404.601L291.337,410.534L286.937,413.734L286.937,435.534ZM263.603,419.6L268.27,414.934L273.003,419.6L268.27,424.334L263.603,419.6ZM82.057,426.467L107.656,426.467L107.656,429.134L82.057,429.134L82.057,426.467ZM64.896,447.333C64.896,456.2 54.896,462.266 46.63,462.266C42.763,462.266 38.83,460.133 38.83,457.067C38.83,454.1 40.363,453.133 42.83,453.067C43.497,453.867 47.163,459.067 48.23,459.933C53.763,459.667 57.23,456.067 57.23,450.467C57.23,447.733 56.163,445.4 53.963,443.533C51.763,441.667 48.697,440.733 44.63,440.8L44.63,437.534L46.897,437.067C53.23,434.4 55.83,430.867 55.83,427.2C55.83,423.267 53.163,421 49.763,421C46.63,421 44.497,422.667 42.697,425.534L40.963,424.734C42.763,419.4 46.897,415.334 52.83,415.334C59.296,415.334 63.23,419.267 63.23,424.4C63.23,429.734 59.096,432.8 54.963,435.067L53.163,436.134L53.163,436.267C59.363,436.667 64.896,440.467 64.896,447.333ZM28.883,461.333L21.216,461.333L21.216,447.933L1.617,447.933L1.617,444.733L26.55,415.734L28.883,415.934L28.883,442.4L37.416,442.4L37.416,447.933L28.883,447.933L28.883,461.333ZM21.216,425.134L6.617,442.4L21.216,442.4L21.216,425.134Z" style="fill:rgb(216,221,227);"/>
    </g>
</svg>
